# xmcd
#
# Track frame offsets: 
#        150
#        13995
#        24126
#        40742
#        50964
#        69179
#        82287
#        92109
#        108758
#        117882
#        120913
#
# Disc length: 1735 seconds
#
# Revision: 0
# Processed by: cddbd v1.5.2PL0 Copyright (c) Steve Scherf et al.
# Submitted via: ExactAudioCopy v1.1
#
DISCID=8606c50b
DTITLE=Oak Ridge Boys - Down Home Christmas
DYEAR=2019
DGENRE=Country
TTITLE0=The Family Piano
TTITLE1=Angels
TTITLE2=Bring Daddy Home
TTITLE3=Reindeer on the Roof
TTITLE4=Silent Night
TTITLE5=Hallelujah Emmanuel
TTITLE6=Down Home Christmas
TTITLE7=South Alabama Christmas
TTITLE8=Don't Go Pullin' On Santa Claus' Beard
TTITLE9=Intro to Amazing Grace
TTITLE10=Amazing Grace
EXTD=
EXTT0=
EXTT1=
EXTT2=
EXTT3=
EXTT4=
EXTT5=
EXTT6=
EXTT7=
EXTT8=
EXTT9=
EXTT10=
PLAYORDER=
